<svg id="svg" version="1.1" xmlns="http://www.w3.org/2000/svg" xmlns:xlink="http://www.w3.org/1999/xlink" width="400" height="225" viewBox="0, 0, 400,225"><g id="svgg"><path id="path0" d="M0.000 112.500 L 0.000 225.000 200.000 225.000 L 400.000 225.000 400.000 112.500 L 400.000 0.000 200.000 0.000 L 0.000 0.000 0.000 112.500 M128.229 42.323 C 130.201 42.889,129.813 42.643,144.232 52.472 C 151.243 57.251,159.463 62.845,162.498 64.903 C 169.335 69.540,170.240 70.400,171.545 73.501 C 175.327 82.485,166.198 90.776,157.150 86.575 C 156.556 86.299,149.290 81.458,141.004 75.816 C 132.717 70.175,125.558 65.301,125.094 64.986 L 124.251 64.413 115.183 70.904 C 110.195 74.475,100.100 81.701,92.749 86.963 L 79.383 96.530 79.327 137.276 L 79.271 178.021 78.685 179.680 C 75.449 188.834,64.023 190.089,59.654 181.771 C 58.098 178.808,58.246 183.071,58.088 136.354 C 58.010 113.323,57.884 93.635,57.808 92.604 C 57.572 89.391,58.631 86.441,60.833 84.183 C 61.820 83.171,115.252 44.694,117.569 43.327 C 120.233 41.755,124.763 41.328,128.229 42.323 M184.609 89.855 C 189.760 91.808,192.323 96.988,190.726 102.219 C 190.459 103.093,190.417 107.608,190.415 135.625 C 190.413 171.244,190.497 168.921,189.125 171.665 C 184.876 180.166,173.241 179.064,169.980 169.851 L 169.479 168.438 169.375 143.516 L 169.271 118.595 151.042 129.411 C 141.016 135.360,132.180 140.553,131.407 140.950 C 127.133 143.144,122.151 142.588,118.646 139.526 C 118.073 139.026,117.427 138.550,117.209 138.470 C 115.985 138.015,86.225 119.169,85.208 118.204 C 77.952 111.314,82.349 100.035,92.243 100.159 C 95.748 100.203,95.236 99.938,111.750 110.263 C 119.095 114.855,125.409 118.793,125.782 119.015 L 126.460 119.417 137.970 112.586 C 162.584 97.979,174.976 90.648,175.651 90.296 C 178.043 89.047,181.970 88.854,184.609 89.855 M336.825 122.656 L 336.879 131.667 334.273 131.667 L 331.667 131.667 331.667 122.743 C 331.667 117.835,331.732 113.754,331.812 113.674 C 331.892 113.594,333.040 113.555,334.364 113.587 L 336.771 113.646 336.825 122.656 M345.158 122.656 L 345.213 131.667 342.606 131.667 L 340.000 131.667 340.000 122.743 C 340.000 117.835,340.065 113.754,340.145 113.674 C 340.225 113.594,341.373 113.555,342.697 113.587 L 345.104 113.646 345.158 122.656 M234.833 114.816 C 239.351 115.766,241.672 119.684,240.851 124.976 C 240.047 130.160,237.811 131.510,229.844 131.623 L 224.583 131.698 224.583 123.141 L 224.583 114.583 229.156 114.583 C 231.719 114.583,234.215 114.685,234.833 114.816 M309.241 114.809 C 312.689 115.766,313.408 120.962,310.297 122.445 L 309.595 122.780 310.379 123.131 C 313.582 124.565,313.493 129.382,310.233 131.085 L 309.119 131.667 302.580 131.667 L 296.042 131.667 296.042 123.125 L 296.042 114.583 302.240 114.584 C 306.000 114.585,308.753 114.673,309.241 114.809 M253.267 118.664 C 258.676 120.158,259.390 128.605,254.324 131.172 C 249.087 133.826,243.211 130.967,242.956 125.641 C 242.684 119.952,247.104 116.961,253.267 118.664 M269.407 118.457 C 269.504 118.517,269.583 119.498,269.583 120.637 L 269.583 122.708 268.490 122.720 C 265.552 122.752,265.141 123.399,265.032 128.175 L 264.952 131.667 262.476 131.667 L 260.000 131.667 260.000 125.104 L 260.000 118.542 262.081 118.542 L 264.162 118.542 264.297 119.388 L 264.432 120.234 265.042 119.494 C 265.947 118.396,268.375 117.820,269.407 118.457 M282.324 118.773 C 282.743 118.983,283.275 119.396,283.507 119.691 L 283.929 120.228 284.872 119.508 C 287.412 117.570,290.896 117.885,292.243 120.176 L 292.813 121.146 292.878 126.406 L 292.943 131.667 290.430 131.667 L 287.917 131.667 287.917 127.486 C 287.917 122.495,287.796 122.094,286.293 122.087 C 284.730 122.079,284.583 122.533,284.583 127.386 L 284.583 131.667 281.979 131.667 L 279.375 131.667 279.375 127.338 C 279.375 122.351,279.301 122.083,277.923 122.083 C 277.282 122.083,277.012 122.213,276.581 122.724 L 276.042 123.365 276.042 127.516 L 276.042 131.667 273.542 131.667 L 271.042 131.667 271.042 125.104 L 271.042 118.542 273.112 118.542 L 275.183 118.542 275.318 119.442 L 275.453 120.342 276.096 119.741 C 277.742 118.204,280.373 117.795,282.324 118.773 M324.792 118.584 C 327.746 119.459,329.375 121.754,329.375 125.044 L 329.375 126.042 324.452 126.042 L 319.529 126.042 319.654 126.812 C 320.001 128.953,323.895 129.538,324.300 127.509 L 324.427 126.875 326.901 126.875 C 329.155 126.875,329.375 126.909,329.375 127.255 C 329.375 133.268,316.846 133.787,314.875 127.854 C 312.801 121.609,318.141 116.617,324.792 118.584 M301.823 118.454 C 301.737 118.541,301.667 119.205,301.667 119.931 L 301.667 121.250 303.750 121.250 C 306.479 121.250,307.643 120.115,306.229 118.834 C 305.770 118.419,302.168 118.108,301.823 118.454 M230.208 123.120 L 230.208 127.546 231.760 127.467 C 234.435 127.332,235.208 126.359,235.208 123.125 C 235.208 119.899,234.472 118.969,231.785 118.796 L 230.208 118.695 230.208 123.120 M320.937 121.736 C 320.223 122.060,319.904 122.404,319.699 123.073 C 319.556 123.539,319.566 123.542,321.861 123.542 C 324.006 123.542,324.167 123.513,324.167 123.137 C 324.167 121.942,322.284 121.126,320.937 121.736 M249.167 121.922 C 247.696 122.688,247.390 126.762,248.715 127.946 C 251.081 130.060,253.530 127.031,252.489 123.279 C 252.136 122.011,250.376 121.291,249.167 121.922 M301.667 126.250 L 301.667 127.708 303.864 127.708 C 306.299 127.708,307.083 127.330,307.083 126.155 C 307.083 125.051,306.489 124.792,303.958 124.792 L 301.667 124.792 301.667 126.250 " stroke="none" fill="#fbfbfc" fill-rule="evenodd"></path><path id="path1" d="M121.146 42.167 C 118.875 42.608,117.682 43.258,113.003 46.603 C 110.606 48.316,103.115 53.683,96.354 58.529 C 89.594 63.375,79.188 70.818,73.229 75.070 C 61.862 83.181,60.386 84.396,59.212 86.608 C 57.923 89.037,57.410 91.922,57.942 93.750 C 58.162 94.504,58.237 102.897,58.326 136.563 L 58.438 178.438 58.976 179.908 C 62.592 189.790,74.662 189.733,78.525 179.817 L 79.063 178.438 79.167 137.464 L 79.271 96.491 101.458 80.613 C 113.661 71.881,123.794 64.642,123.974 64.528 C 124.234 64.364,127.627 66.587,140.120 75.104 C 148.820 81.036,156.406 86.106,156.979 86.372 C 166.635 90.852,175.790 81.761,170.932 72.517 C 169.725 70.221,168.674 69.231,164.222 66.199 C 161.957 64.657,153.901 59.166,146.320 53.998 C 129.820 42.749,130.536 43.214,128.678 42.572 C 126.808 41.927,123.343 41.740,121.146 42.167 M177.654 89.700 C 175.950 90.113,179.749 87.913,138.369 112.456 L 126.426 119.540 112.432 110.790 C 95.438 100.164,95.523 100.208,92.011 100.208 C 82.249 100.208,78.078 112.267,85.663 118.562 C 86.619 119.356,116.149 137.881,117.329 138.428 C 117.710 138.604,118.573 139.212,119.247 139.780 C 122.278 142.330,127.000 142.843,130.938 141.049 C 131.625 140.735,140.511 135.543,150.684 129.510 C 160.857 123.478,169.271 118.542,169.382 118.542 C 169.510 118.542,169.583 127.446,169.583 143.147 C 169.583 170.512,169.503 168.898,171.007 171.771 C 175.394 180.149,186.315 178.929,189.844 169.667 L 190.313 168.438 190.358 135.679 C 190.398 107.049,190.444 102.766,190.723 101.691 C 192.698 94.069,185.788 87.729,177.654 89.700 M331.875 122.708 L 331.875 131.667 334.271 131.667 L 336.667 131.667 336.667 122.708 L 336.667 113.750 334.271 113.750 L 331.875 113.750 331.875 122.708 M340.208 122.708 L 340.208 131.667 342.604 131.667 L 345.000 131.667 345.000 122.708 L 345.000 113.750 342.604 113.750 L 340.208 113.750 340.208 122.708 M224.722 114.722 C 224.646 114.799,224.583 118.642,224.583 123.264 L 224.583 131.667 228.594 131.663 C 236.892 131.654,239.618 130.293,240.599 125.667 C 241.603 120.934,239.863 116.752,236.337 115.426 C 234.513 114.740,225.265 114.180,224.722 114.722 M296.250 123.106 L 296.250 131.667 302.073 131.667 C 309.680 131.667,310.972 131.345,312.078 129.178 C 313.044 127.285,312.043 123.333,310.598 123.333 C 310.513 123.333,310.180 123.232,309.857 123.108 L 309.271 122.883 309.896 122.562 C 312.983 120.976,312.953 116.803,309.844 115.276 L 308.646 114.688 302.448 114.617 L 296.250 114.546 296.250 123.106 M248.210 118.534 C 242.129 119.839,240.872 128.359,246.363 131.061 C 252.798 134.229,259.356 129.030,257.182 122.484 C 256.183 119.477,252.131 117.693,248.210 118.534 M266.323 118.735 C 265.847 118.951,265.243 119.418,264.981 119.773 C 264.455 120.485,264.175 120.330,264.170 119.323 L 264.167 118.750 262.188 118.750 L 260.208 118.750 260.208 125.208 L 260.208 131.667 262.604 131.667 L 265.000 131.667 265.000 128.222 C 265.000 123.376,265.377 122.708,268.115 122.708 L 269.375 122.708 269.375 120.647 C 269.375 118.960,269.315 118.563,269.045 118.460 C 268.419 118.219,267.184 118.344,266.323 118.735 M278.646 118.528 C 277.811 118.731,276.859 119.240,276.067 119.906 C 275.382 120.483,275.293 120.430,275.166 119.375 C 275.105 118.864,275.066 118.853,273.073 118.795 L 271.042 118.735 271.042 125.201 L 271.042 131.667 273.438 131.667 L 275.833 131.667 275.834 127.969 C 275.836 123.062,276.243 121.875,277.922 121.875 C 279.379 121.875,279.472 122.178,279.543 127.169 L 279.606 131.667 281.991 131.667 L 284.375 131.667 284.375 127.594 C 284.375 122.587,284.628 121.875,286.408 121.875 C 287.841 121.875,288.013 122.429,288.088 127.308 L 288.155 131.667 290.536 131.667 L 292.917 131.667 292.915 127.448 C 292.914 122.639,292.724 121.088,292.003 119.999 C 290.618 117.905,287.053 117.850,284.635 119.885 L 284.005 120.414 283.196 119.605 C 282.063 118.472,280.447 118.090,278.646 118.528 M306.290 118.698 C 306.779 119.267,306.882 119.747,306.648 120.362 C 306.334 121.187,306.153 121.243,303.802 121.247 L 301.667 121.250 301.667 119.792 L 301.667 118.333 303.822 118.333 C 305.616 118.333,306.030 118.394,306.290 118.698 M319.801 118.547 C 315.512 119.452,313.313 124.092,315.188 128.283 C 317.561 133.588,329.167 132.858,329.167 127.403 L 329.167 126.875 326.875 126.875 C 325.032 126.875,324.583 126.933,324.583 127.172 C 324.583 129.749,319.872 129.234,319.446 126.610 L 319.320 125.833 324.271 125.833 L 329.221 125.833 329.122 124.287 C 328.842 119.913,324.883 117.475,319.801 118.547 M233.837 119.127 C 234.829 119.707,235.268 120.672,235.374 122.509 C 235.592 126.278,234.419 127.704,231.094 127.707 L 230.000 127.708 230.000 123.264 C 230.000 120.819,230.070 118.747,230.156 118.658 C 230.419 118.387,233.169 118.737,233.837 119.127 M323.345 121.673 C 323.783 121.908,324.375 122.915,324.375 123.427 C 324.375 123.701,323.994 123.750,321.875 123.750 C 320.500 123.750,319.375 123.700,319.375 123.639 C 319.375 122.054,321.806 120.849,323.345 121.673 M251.678 121.881 C 253.320 122.760,253.111 127.567,251.396 128.407 C 249.038 129.561,247.335 127.433,247.816 123.934 C 248.081 122.010,250.006 120.986,251.678 121.881 M306.756 125.119 C 307.185 125.549,307.175 126.845,306.739 127.327 C 306.443 127.654,306.055 127.708,304.030 127.708 L 301.667 127.708 301.667 126.250 L 301.667 124.792 304.048 124.792 C 305.934 124.792,306.497 124.860,306.756 125.119 " stroke="none" fill="#cc6ce4" fill-rule="evenodd"></path><path id="path2" d="M180.260 89.310 C 180.461 89.363,180.789 89.363,180.990 89.310 C 181.190 89.258,181.026 89.215,180.625 89.215 C 180.224 89.215,180.060 89.258,180.260 89.310 M232.344 114.727 C 232.544 114.779,232.872 114.779,233.073 114.727 C 233.273 114.675,233.109 114.632,232.708 114.632 C 232.307 114.632,232.143 114.675,232.344 114.727 M169.476 142.708 C 169.476 156.057,169.501 161.518,169.531 154.844 C 169.562 148.169,169.562 137.247,169.531 130.573 C 169.501 123.898,169.476 129.359,169.476 142.708 M230.680 118.691 C 230.997 118.739,231.465 118.738,231.722 118.688 C 231.978 118.639,231.719 118.600,231.146 118.601 C 230.573 118.603,230.363 118.643,230.680 118.691 M260.094 118.804 C 260.039 118.949,260.020 121.925,260.052 125.419 L 260.111 131.771 260.159 125.268 L 260.208 118.765 262.240 118.697 L 264.271 118.629 262.233 118.585 C 260.753 118.554,260.168 118.614,260.094 118.804 M269.451 120.521 C 269.452 121.667,269.487 122.109,269.529 121.503 C 269.571 120.898,269.571 119.961,269.528 119.420 C 269.485 118.880,269.451 119.375,269.451 120.521 M271.563 118.674 C 273.019 118.828,275.163 118.842,275.073 118.698 C 275.019 118.612,274.067 118.557,272.956 118.575 C 271.846 118.593,271.219 118.638,271.563 118.674 M288.004 127.604 C 288.004 129.896,288.034 130.862,288.072 129.751 C 288.109 128.640,288.109 126.765,288.072 125.584 C 288.035 124.403,288.004 125.313,288.004 127.604 M247.773 125.104 C 247.774 125.792,247.813 126.048,247.859 125.673 C 247.906 125.299,247.905 124.736,247.857 124.423 C 247.810 124.110,247.772 124.417,247.773 125.104 M275.920 127.813 C 275.920 129.990,275.951 130.852,275.989 129.729 C 276.026 128.606,276.026 126.824,275.988 125.770 C 275.951 124.716,275.920 125.635,275.920 127.813 M257.560 125.104 C 257.561 125.677,257.602 125.887,257.649 125.570 C 257.697 125.253,257.696 124.785,257.647 124.528 C 257.597 124.272,257.558 124.531,257.560 125.104 M329.167 125.482 C 329.167 125.790,328.652 125.832,324.219 125.886 L 319.271 125.945 324.225 125.994 C 329.186 126.042,329.959 125.931,329.297 125.269 C 329.225 125.197,329.167 125.293,329.167 125.482 M312.553 126.979 C 312.555 127.438,312.598 127.600,312.647 127.341 C 312.697 127.082,312.695 126.707,312.643 126.508 C 312.591 126.309,312.550 126.521,312.553 126.979 M230.573 127.651 C 230.945 127.697,231.555 127.697,231.927 127.651 C 232.299 127.604,231.995 127.567,231.250 127.567 C 230.505 127.567,230.201 127.604,230.573 127.651 M125.677 142.227 C 125.878 142.279,126.206 142.279,126.406 142.227 C 126.607 142.175,126.443 142.132,126.042 142.132 C 125.641 142.132,125.477 142.175,125.677 142.227 " stroke="none" fill="#dd9fed" fill-rule="evenodd"></path><path id="path3" d="M161.513 87.649 C 161.830 87.697,162.299 87.696,162.555 87.647 C 162.811 87.597,162.552 87.558,161.979 87.560 C 161.406 87.561,161.197 87.602,161.513 87.649 M58.227 136.458 C 58.227 158.630,58.251 167.701,58.281 156.615 C 58.311 145.529,58.311 127.388,58.281 116.302 C 58.251 105.216,58.227 114.286,58.227 136.458 M191.094 99.271 C 191.097 99.729,191.139 99.892,191.189 99.633 C 191.239 99.374,191.237 98.999,191.185 98.800 C 191.133 98.600,191.092 98.813,191.094 99.271 M336.762 122.708 C 336.762 127.693,336.789 129.732,336.823 127.240 C 336.856 124.747,336.856 120.669,336.823 118.177 C 336.789 115.685,336.762 117.724,336.762 122.708 M340.096 122.708 C 340.096 127.693,340.123 129.732,340.156 127.240 C 340.189 124.747,340.189 120.669,340.156 118.177 C 340.123 115.685,340.096 117.724,340.096 122.708 M230.088 123.125 C 230.088 125.589,230.119 126.596,230.155 125.365 C 230.192 124.133,230.192 122.117,230.155 120.885 C 230.119 119.654,230.088 120.661,230.088 123.125 M235.275 123.125 C 235.275 123.870,235.313 124.174,235.359 123.802 C 235.405 123.430,235.405 122.820,235.359 122.448 C 235.313 122.076,235.275 122.380,235.275 123.125 M240.882 123.125 C 240.882 123.526,240.925 123.690,240.977 123.490 C 241.029 123.289,241.029 122.961,240.977 122.760 C 240.925 122.560,240.882 122.724,240.882 123.125 M324.167 123.299 C 324.167 123.467,323.444 123.555,321.823 123.586 L 319.479 123.630 321.753 123.697 C 323.856 123.760,324.705 123.594,324.309 123.198 C 324.231 123.120,324.167 123.165,324.167 123.299 M284.463 127.604 C 284.462 129.896,284.493 130.862,284.530 129.751 C 284.568 128.640,284.568 126.765,284.531 125.584 C 284.493 124.403,284.463 125.313,284.463 127.604 M321.927 132.019 C 322.128 132.071,322.456 132.071,322.656 132.019 C 322.857 131.966,322.693 131.923,322.292 131.923 C 321.891 131.923,321.727 131.966,321.927 132.019 " stroke="none" fill="#e8bef4" fill-rule="evenodd"></path><path id="path4" d="M79.269 136.667 C 79.269 158.724,79.293 167.747,79.323 156.719 C 79.353 145.690,79.353 127.643,79.323 116.615 C 79.293 105.586,79.269 114.609,79.269 136.667 M331.762 113.802 C 331.707 113.945,331.688 118.047,331.719 122.917 L 331.775 131.771 331.825 122.767 L 331.875 113.763 334.323 113.697 L 336.771 113.631 334.316 113.586 C 332.511 113.554,331.836 113.611,331.762 113.802 M342.602 113.694 L 344.996 113.763 345.053 122.767 L 345.111 131.771 345.108 122.708 L 345.104 113.646 342.656 113.635 L 340.208 113.625 342.602 113.694 M296.137 123.125 C 296.137 127.880,296.164 129.826,296.198 127.448 C 296.231 125.070,296.231 121.180,296.198 118.802 C 296.164 116.424,296.137 118.370,296.137 123.125 M279.462 127.708 C 279.462 129.943,279.493 130.857,279.530 129.740 C 279.568 128.622,279.568 126.794,279.530 125.677 C 279.493 124.560,279.462 125.474,279.462 127.708 " stroke="none" fill="#f4dbfb" fill-rule="evenodd"></path></g></svg>